<mxfile host="app.diagrams.net" modified="2024-06-26T18:29:29.124Z" agent="Mozilla/5.0 (Macintosh; Intel Mac OS X 10_15_7) AppleWebKit/605.1.15 (KHTML, like Gecko) Version/17.5 Safari/605.1.15" version="24.6.3" etag="MswP17uNJjEihWt_tsEH" type="github">
  <diagram name="PÃ¡gina-1" id="FeFWAEPmzhl9OTxfUZWg">
    <mxGraphModel>
      <root>
        <mxCell id="0" />
        <mxCell id="1" parent="0" />
      </root>
    </mxGraphModel>
  </diagram>
</mxfile>
